HIERARCHY
ROOT Hips
{
	OFFSET 0.000000 0.000000 0.000000
	CHANNELS 6 Xposition Yposition Zposition Zrotation Yrotation Xrotation 
	JOINT LHipJoint
	{
		OFFSET 0.000000 0.000000 0.000000
		CHANNELS 3 Zrotation Yrotation Xrotation
		JOINT LeftUpLeg
		{
			OFFSET 8.178360 -10.767780 5.035740
			CHANNELS 3 Zrotation Yrotation Xrotation
			JOINT LeftLeg
			{
				OFFSET 14.688660 -40.356780 0.000000
				CHANNELS 3 Zrotation Yrotation Xrotation
				JOINT LeftFoot
				{
					OFFSET 15.373200 -42.237540 0.000000
					CHANNELS 3 Zrotation Yrotation Xrotation
					JOINT LeftToeBase
					{
						OFFSET 0.945840 -2.598660 13.935300
						CHANNELS 3 Zrotation Yrotation Xrotation
						End Site
						{
							OFFSET 0.000000 0.000000 0.000000
						}
					}
				}
			}
		}
	}
	JOINT RHipJoint
	{
		OFFSET 0.000000 0.000000 0.000000
		CHANNELS 3 Zrotation Yrotation Xrotation
		JOINT RightUpLeg
		{
			OFFSET -7.833120 -10.767780 5.035740
			CHANNELS 3 Zrotation Yrotation Xrotation
			JOINT RightLeg
			{
				OFFSET -15.255180 -41.913300 0.000000
				CHANNELS 3 Zrotation Yrotation Xrotation
				JOINT RightFoot
				{
					OFFSET -15.409560 -42.337380 0.000000
					CHANNELS 3 Zrotation Yrotation Xrotation
					JOINT RightToeBase
					{
						OFFSET -0.988380 -2.715540 14.178900
						CHANNELS 3 Zrotation Yrotation Xrotation
						End Site
						{
							OFFSET 0.000000 0.000000 0.000000
						}
					}
				}
			}
		}
	}
	JOINT LowerBack
	{
		OFFSET 0.000000 0.000000 0.000000
		CHANNELS 3 Zrotation Yrotation Xrotation
		JOINT Spine
		{
			OFFSET 0.169620 12.213540 -1.160280
			CHANNELS 3 Zrotation Yrotation Xrotation
			JOINT Spine1
			{
				OFFSET 0.340320 12.293100 -0.256500
				CHANNELS 3 Zrotation Yrotation Xrotation
				JOINT Neck
				{
					OFFSET 0.000000 0.000000 0.000000
					CHANNELS 3 Zrotation Yrotation Xrotation
					JOINT Neck1
					{
						OFFSET -0.325020 10.477440 1.032120
						CHANNELS 3 Zrotation Yrotation Xrotation
						JOINT Head
						{
							OFFSET 0.624420 10.568160 -0.743820
							CHANNELS 3 Zrotation Yrotation Xrotation
							End Site
							{
								OFFSET 0.000000 0.000000 0.000000
							}
						}
					}
				}
				JOINT LeftShoulder
				{
					OFFSET 0.000000 0.000000 0.000000
					CHANNELS 3 Zrotation Yrotation Xrotation
					JOINT LeftArm
					{
						OFFSET 20.174460 7.205340 -1.867260
						CHANNELS 3 Zrotation Yrotation Xrotation
						JOINT LeftForeArm
						{
							OFFSET 29.898000 -0.000000 -0.000000
							CHANNELS 3 Zrotation Yrotation Xrotation
							JOINT LeftHand
							{
								OFFSET 20.901360 -0.000000 -0.000000
								CHANNELS 3 Zrotation Yrotation Xrotation
								JOINT LeftFingerBase
								{
									OFFSET 0.000000 0.000000 0.000000
									CHANNELS 3 Zrotation Yrotation Xrotation
									JOINT LeftHandIndex1
									{
										OFFSET 4.291560 -0.000000 -0.000000
										CHANNELS 3 Zrotation Yrotation Xrotation
										End Site
										{
											OFFSET 0.000000 0.000000 0.000000
										}
									}
								}
								JOINT LThumb
								{
									OFFSET 0.000000 0.000000 0.000000
									CHANNELS 3 Zrotation Yrotation Xrotation
									End Site
									{
										OFFSET 0.000000 0.000000 0.000000
									}
								}
							}
						}
					}
				}
				JOINT RightShoulder
				{
					OFFSET 0.000000 0.000000 0.000000
					CHANNELS 3 Zrotation Yrotation Xrotation
					JOINT RightArm
					{
						OFFSET -18.819600 8.244300 -2.427900
						CHANNELS 3 Zrotation Yrotation Xrotation
						JOINT RightForeArm
						{
							OFFSET -31.451400 -0.000000 -0.000000
							CHANNELS 3 Zrotation Yrotation Xrotation
							JOINT RightHand
							{
								OFFSET -20.665020 -0.000000 -0.000000
								CHANNELS 3 Zrotation Yrotation Xrotation
								JOINT RightFingerBase
								{
									OFFSET 0.000000 0.000000 0.000000
									CHANNELS 3 Zrotation Yrotation Xrotation
									JOINT RightHandIndex1
									{
										OFFSET -3.735180 -0.000000 -0.000000
										CHANNELS 3 Zrotation Yrotation Xrotation
										End Site
										{
											OFFSET 0.000000 0.000000 0.000000
										}
									}
								}
								JOINT RThumb
								{
									OFFSET 0.000000 0.000000 0.000000
									CHANNELS 3 Zrotation Yrotation Xrotation
									End Site
									{
										OFFSET 0.000000 0.000000 0.000000
									}
								}
							}
						}
					}
				}
			}
		}
	}
}
MOTION
Frames:	7
Frame Time:	0.0333333
95.320428 107.414490 -61.557372 2.210526 -43.053972 2.966242 -3.324771 1.256016 2.434311 -18.332356 -7.457221 -10.676811 0.114170 7.399517 22.456438 0.888493 -6.730041 -3.237909 0.034300 1.195800 3.287700 0.608313 -1.220255 1.186510 21.003662 7.066970 -13.254321 -2.693360 -10.337213 31.613694 -0.859264 1.934140 -8.445032 -0.091400 -1.949700 5.366700 -0.606189 -0.074497 4.297196 1.505620 -0.124263 -0.286175 0.370428 -0.101368 -4.955970 -10.938869 -5.482175 -18.484966 7.533895 -5.249093 13.983533 4.409100 -2.581400 11.951800 -6.516303 -0.659252 -1.716817 -83.787911 2.966943 24.738879 14.695165 -20.739499 -3.191247 -1.191361 -2.183070 10.676865 15.910994 22.696875 7.237800 -7.125000 0.000000 0.000000 -13.873600 55.455600 -3.611100 5.235317 1.536913 -1.137964 83.507582 -2.381656 14.460726 -15.200874 22.564847 -3.216954 0.147555 -0.206070 12.536843 -10.097855 9.376299 -1.723300 7.125000 0.000000 0.000000 11.886200 -20.377000 7.157200 
95.277234 107.410290 -61.438590 1.913043 -43.331680 3.137841 -3.312362 1.260941 2.450312 -18.127486 -7.169904 -10.759362 0.140209 7.460677 22.625119 0.879059 -6.528716 -3.362935 0.046600 1.393300 3.831600 0.606166 -1.222298 1.184987 21.250680 7.211498 -13.009544 -2.661906 -10.281043 31.446212 -0.864855 1.984400 -8.401045 -0.085600 -1.887700 5.195300 -0.409365 0.001124 4.342906 1.488995 -0.005616 -0.343568 0.230951 -0.047979 -5.103848 -11.179761 -5.746290 -18.483567 7.687210 -5.548131 14.013142 4.473700 -2.716200 12.022800 -6.507781 -0.637515 -1.731522 -83.864405 3.140060 24.699051 14.912301 -21.048332 -3.293162 -1.153301 -2.208177 10.725746 15.537564 22.921716 7.112600 -7.125000 0.000000 0.000000 -14.426200 55.614700 -3.815400 5.216845 1.560536 -1.130563 83.870285 -2.199232 13.977199 -15.294489 22.698034 -3.256258 0.146064 -0.222899 13.133530 -10.317228 9.778197 -1.837700 7.125000 0.000000 0.000000 11.705900 -19.953900 7.157700 
95.211840 107.439684 -61.370196 2.055397 -43.482473 3.349639 -3.324481 1.238354 2.435735 -18.207505 -7.117944 -10.978478 0.115906 7.429714 22.514955 0.891415 -6.297202 -3.998890 0.001000 0.205500 0.564600 0.619151 -1.214988 1.189266 21.103620 7.475213 -13.269734 -2.669262 -10.288125 31.460316 -0.994428 2.593513 -8.633509 -0.043700 -1.349700 3.711500 -0.613100 0.002994 3.909301 1.371575 -0.022036 -0.391568 0.140103 -0.053855 -4.927100 -10.916430 -5.612445 -18.318712 7.583193 -5.463305 13.907672 4.398000 -2.670900 11.913300 -6.506272 -0.674241 -1.713729 -83.479037 2.724389 24.983969 14.848194 -20.963249 -3.267025 -1.152634 -2.187142 9.828865 15.864779 22.475816 7.152400 -7.125000 0.000000 0.000000 -13.806800 55.214400 -3.511600 5.207099 1.560415 -1.136489 84.272262 -1.967939 14.689508 -15.600172 23.125471 -3.391319 0.151839 -0.208652 12.362982 -10.305834 9.615671 -1.803700 7.125000 0.000000 0.000000 11.723200 -20.128700 7.121700 
95.172246 107.413290 -61.275408 1.785063 -43.579078 3.399364 -3.312878 1.253956 2.469735 -17.991144 -6.762526 -10.938653 0.125454 7.434355 22.529682 0.919936 -6.565977 -3.889776 0.009600 0.631900 1.736600 0.610663 -1.219317 1.181903 21.401468 7.582194 -13.015033 -2.667630 -10.289611 31.477418 -0.888337 2.039921 -8.622245 -0.019300 -0.896800 2.465000 -0.388621 0.008993 4.067275 1.394697 0.005675 -0.443099 0.044121 -0.045781 -5.124053 -11.309906 -5.698472 -18.224075 7.654449 -5.488595 14.170276 4.509100 -2.719000 12.026600 -6.506902 -0.668175 -1.720619 -83.700448 2.760104 24.705233 14.931023 -21.066799 -3.297945 -1.229755 -2.172460 10.148747 16.738591 22.590778 7.609400 -7.125000 0.000000 0.000000 -12.902900 55.513600 -3.370300 5.187228 1.580649 -1.135432 84.355678 -2.035706 15.032884 -15.917964 23.562390 -3.531778 0.151333 -0.200927 11.977726 -10.239991 9.587004 -1.785300 7.125000 0.000000 0.000000 11.773800 -20.166100 7.143700 
95.111052 107.390490 -61.170414 1.676348 -43.739953 3.350858 -3.306784 1.260731 2.489331 -17.942352 -6.527153 -10.871919 0.145998 7.470370 22.638582 0.931779 -6.562941 -4.080574 0.002400 0.319100 0.876700 0.605762 -1.230670 1.178344 21.548593 7.909992 -12.651224 -2.651409 -10.274116 31.428371 -0.771666 1.404888 -8.705473 -0.045400 -1.375700 3.783100 -0.351485 0.044671 4.109722 1.371366 0.052969 -0.438611 -0.057029 -0.015974 -5.145687 -10.760912 -5.213459 -17.947403 7.124566 -5.018552 14.360781 4.270200 -2.539600 11.938100 -6.484704 -0.727300 -1.709393 -83.795088 2.671256 24.147908 14.984281 -21.127836 -3.320362 -1.141439 -2.175846 10.254934 15.666769 22.379227 7.024600 -7.125000 0.000000 0.000000 -13.984200 55.070200 -3.508600 5.195971 1.532408 -1.157055 84.540881 -2.023565 15.299230 -16.251013 24.018357 -3.680355 0.158423 -0.201642 11.828856 -10.490239 9.716873 -1.854200 7.125000 0.000000 0.000000 11.585700 -20.026800 7.061800 
95.080458 107.360496 -61.087626 1.555724 -43.743230 3.320451 -3.297295 1.266431 2.506685 -17.885945 -6.299854 -10.850728 0.171156 7.503921 22.747638 0.952815 -6.844909 -3.906258 0.008900 0.609900 1.675900 0.600327 -1.237667 1.177360 21.688733 8.022784 -12.390682 -2.646020 -10.268673 31.416663 -0.705698 1.044079 -8.776173 -0.026500 -1.050100 2.886600 -0.345775 -0.035770 4.258765 1.413926 -0.055818 -0.468194 0.009862 -0.066340 -5.279808 -10.701326 -5.070918 -17.930303 6.983489 -4.851773 14.591227 4.231600 -2.484900 12.001500 -6.475881 -0.747643 -1.710100 -83.947207 2.635473 24.292748 15.011081 -21.157078 -3.327977 -1.143770 -2.267020 9.973399 15.593314 23.442934 7.290900 -7.125000 0.000000 0.000000 -14.656600 56.183300 -4.082000 5.193634 1.525936 -1.167754 84.481682 -2.110921 16.231674 -16.568844 24.448295 -3.829455 0.149311 -0.185071 11.372355 -10.089060 9.509293 -1.741500 7.125000 0.000000 0.000000 11.890100 -20.262700 7.191000 
94.989864 107.337696 -60.990438 2.704984 -43.703594 2.734210 -3.315738 1.228977 2.503846 -18.818156 -5.805571 -10.985774 0.137304 7.393797 22.457869 0.981258 -7.385217 -3.722394 0.010600 0.663700 1.823900 0.607199 -1.231641 1.182087 20.711353 7.960811 -12.799100 -2.711163 -10.387764 31.764644 -0.701908 0.955788 -8.943061 -0.013600 -0.753600 2.071200 -1.329663 -0.018286 3.900204 1.259518 -0.117776 -0.486048 0.273141 -0.071145 -5.113067 -10.594033 -5.000751 -17.876418 6.949669 -4.787260 14.509285 4.195600 -2.447500 11.935900 -6.465670 -0.739680 -1.719762 -84.306681 2.731025 23.251012 15.284638 -21.533778 -3.457798 -1.061392 -2.185506 10.824677 14.675432 22.345561 6.530400 -7.125000 0.000000 0.000000 -15.079500 54.833300 -3.704700 5.182879 1.513012 -1.166703 84.614332 -1.956172 15.989757 -16.712759 24.652340 -3.898086 0.138975 -0.201736 11.543205 -9.930792 10.103113 -1.820300 7.125000 0.000000 0.000000 11.973000 -19.662100 7.408400 
